<svg width="29" height="24" fill="none" xmlns="http://www.w3.org/2000/svg"><path d="M28.976 0c-.725 1.707-1.28 3.264-1.664 4.672-.384 1.408-.576 2.688-.576 3.84 0 1.323.17 2.453.512 3.392.341.939.683 1.856 1.024 2.752.384.896.576 1.963.576 3.2 0 1.536-.597 2.859-1.792 3.968-1.195 1.11-2.773 1.664-4.736 1.664-2.005 0-3.584-.619-4.736-1.856-1.152-1.237-1.728-2.987-1.728-5.248 0-1.536.363-3.285 1.088-5.248.725-1.963 1.685-3.925 2.88-5.888A28.452 28.452 0 0 1 24.048 0h4.928ZM13.68 0c-.725 1.707-1.28 3.264-1.664 4.672-.384 1.408-.576 2.688-.576 3.84 0 1.323.17 2.453.512 3.392.341.939.683 1.856 1.024 2.752.384.896.576 1.963.576 3.2 0 1.536-.597 2.859-1.792 3.968-1.195 1.11-2.773 1.664-4.736 1.664-2.005 0-3.584-.619-4.736-1.856C1.136 20.395.56 18.645.56 16.384c0-1.536.363-3.285 1.088-5.248.725-1.963 1.685-3.925 2.88-5.888A28.455 28.455 0 0 1 8.752 0h4.928Z" fill="#F58020"/></svg>