<svg width="30" height="30" viewBox="0 0 30 30" fill="none" xmlns="http://www.w3.org/2000/svg">
<circle cx="15" cy="15" r="15" fill="#F58020"/>
<path d="M20.0823 11.2435C20.4484 10.8774 20.4484 10.2838 20.0823 9.91767C19.7162 9.55155 19.1226 9.55155 18.7565 9.91767L15 13.6742L11.2435 9.91767C10.8774 9.55155 10.2838 9.55155 9.91767 9.91767C9.55155 10.2838 9.55155 10.8774 9.91767 11.2435L13.6742 15L9.91765 18.7565C9.55154 19.1226 9.55154 19.7162 9.91765 20.0823C10.2838 20.4484 10.8774 20.4484 11.2435 20.0823L15 16.3258L18.7565 20.0823C19.1226 20.4484 19.7162 20.4484 20.0823 20.0823C20.4484 19.7162 20.4484 19.1226 20.0823 18.7565L16.3258 15L20.0823 11.2435Z" fill="white"/>
</svg>
