<svg width="20" height="16" fill="none" xmlns="http://www.w3.org/2000/svg"><path d="M16.93 1.641A16.491 16.491 0 0 0 12.86.38a.062.062 0 0 0-.066.03c-.175.313-.37.721-.506 1.042a15.226 15.226 0 0 0-4.573 0A10.54 10.54 0 0 0 7.2.41a.064.064 0 0 0-.065-.031 16.447 16.447 0 0 0-4.07 1.262.058.058 0 0 0-.028.023C.444 5.538-.266 9.316.083 13.048a.069.069 0 0 0 .026.047 16.584 16.584 0 0 0 4.994 2.524.065.065 0 0 0 .07-.023c.385-.525.728-1.079 1.022-1.662a.063.063 0 0 0-.035-.088 10.927 10.927 0 0 1-1.56-.743.064.064 0 0 1-.007-.107c.105-.078.21-.16.31-.242a.062.062 0 0 1 .065-.01c3.273 1.495 6.817 1.495 10.051 0a.062.062 0 0 1 .066.009c.1.082.204.165.31.243a.064.064 0 0 1-.005.107c-.499.291-1.017.537-1.561.743a.064.064 0 0 0-.034.088c.3.582.643 1.136 1.02 1.662a.063.063 0 0 0 .07.023 16.53 16.53 0 0 0 5.003-2.524.064.064 0 0 0 .026-.046c.417-4.314-.699-8.062-2.957-11.384a.05.05 0 0 0-.026-.024ZM6.684 10.776c-.985 0-1.797-.905-1.797-2.016s.796-2.016 1.797-2.016c1.01 0 1.814.913 1.798 2.016 0 1.111-.796 2.016-1.798 2.016Zm6.646 0c-.986 0-1.797-.905-1.797-2.016s.796-2.016 1.797-2.016c1.009 0 1.813.913 1.797 2.016 0 1.111-.788 2.016-1.797 2.016Z" fill="#fff"/></svg>